<?xml version="1.0" encoding="UTF-8" standalone="no"?>
<!DOCTYPE svg PUBLIC "-//W3C//DTD SVG 1.1//EN"
 "http://www.w3.org/Graphics/SVG/1.1/DTD/svg11.dtd">
<!-- Generated by graphviz version 2.43.0 (0)
 -->
<!-- Title: workflow Pages: 1 -->
<svg width="569pt" height="67pt"
 viewBox="0.00 0.00 569.35 67.00" xmlns="http://www.w3.org/2000/svg" xmlns:xlink="http://www.w3.org/1999/xlink">
<g id="graph0" class="graph" transform="scale(1 1) rotate(0) translate(4 63)">
<title>workflow</title>
<polygon fill="white" stroke="transparent" points="-4,4 -4,-63 565.35,-63 565.35,4 -4,4"/>
<text text-anchor="start" x="216.18" y="-8.8" font-family="Times,serif" font-weight="bold" font-size="14.00">OfficialWorkflow</text>
<!-- place_new -->
<g id="node1" class="node">
<title>place_new</title>
<ellipse fill="lightgreen" stroke="#333333" cx="36" cy="-41" rx="36" ry="18"/>
<text text-anchor="start" x="28" y="-40.1" font-family="Arial" font-weight="bold" font-size="8.00">new</text>
</g>
<!-- transition_0 -->
<g id="node4" class="node">
<title>transition_0</title>
<polygon fill="none" stroke="#333333" points="222,-59 108,-59 108,-23 222,-23 222,-59"/>
<text text-anchor="start" x="145" y="-47.6" font-family="Arial" font-weight="bold" font-size="8.00">fetch_wiki</text>
<text text-anchor="start" x="136" y="-39.6" font-family="Arial" font-style="italic" font-size="8.00">scrape wiki data</text>
<text text-anchor="start" x="116" y="-31.6" font-family="Arial" font-size="8.00">transport: official_fetch_wiki</text>
</g>
<!-- place_new&#45;&gt;transition_0 -->
<!-- new -->
<g id="edge1" class="edge">
<title>place_new&#45;&gt;transition_0</title>
<path fill="none" stroke="#333333" d="M72.04,-41C81.5,-41 92.03,-41 102.49,-41"/>
<polygon fill="#333333" stroke="#333333" points="102.61,-42.75 107.61,-41 102.61,-39.25 102.61,-42.75"/>
</g>
<!-- place_details -->
<g id="node2" class="node">
<title>place_details</title>
<ellipse fill="lightgreen" stroke="#333333" cx="294" cy="-41" rx="36" ry="18"/>
<text text-anchor="start" x="280.5" y="-40.1" font-family="Arial" font-weight="bold" font-size="8.00">details</text>
</g>
<!-- transition_1 -->
<g id="node5" class="node">
<title>transition_1</title>
<polygon fill="none" stroke="#333333" points="438,-59 366,-59 366,-23 438,-23 438,-59"/>
<text text-anchor="start" x="390.5" y="-47.6" font-family="Arial" font-weight="bold" font-size="8.00">resize</text>
<text text-anchor="start" x="375.5" y="-39.6" font-family="Arial" font-style="italic" font-size="8.00">dispatch resize</text>
<text text-anchor="start" x="388" y="-31.6" font-family="Arial" font-style="italic" font-size="8.00">request</text>
</g>
<!-- place_details&#45;&gt;transition_1 -->
<!-- details -->
<g id="edge3" class="edge">
<title>place_details&#45;&gt;transition_1</title>
<path fill="none" stroke="#333333" d="M330,-41C339.76,-41 350.44,-41 360.49,-41"/>
<polygon fill="#333333" stroke="#333333" points="360.67,-42.75 365.67,-41 360.67,-39.25 360.67,-42.75"/>
</g>
<!-- place_images_resized -->
<g id="node3" class="node">
<title>place_images_resized</title>
<ellipse fill="lightgreen" stroke="#333333" cx="517.68" cy="-41" rx="43.85" ry="18"/>
<text text-anchor="start" x="487.18" y="-40.1" font-family="Arial" font-weight="bold" font-size="8.00">images_resized</text>
</g>
<!-- transition_0&#45;&gt;place_details -->
<g id="edge2" class="edge">
<title>transition_0&#45;&gt;place_details</title>
<path fill="none" stroke="#333333" d="M222.07,-41C232.37,-41 242.93,-41 252.66,-41"/>
<polygon fill="#333333" stroke="#333333" points="252.66,-42.75 257.66,-41 252.66,-39.25 252.66,-42.75"/>
</g>
<!-- transition_1&#45;&gt;place_images_resized -->
<g id="edge4" class="edge">
<title>transition_1&#45;&gt;place_images_resized</title>
<path fill="none" stroke="#333333" d="M438.03,-41C447.79,-41 458.55,-41 468.91,-41"/>
<polygon fill="#333333" stroke="#333333" points="468.95,-42.75 473.95,-41 468.95,-39.25 468.95,-42.75"/>
</g>
</g>
</svg>
