<?xml version="1.0" encoding="UTF-8" standalone="no"?>
<!DOCTYPE svg PUBLIC "-//W3C//DTD SVG 1.1//EN"
 "http://www.w3.org/Graphics/SVG/1.1/DTD/svg11.dtd">
<!-- Generated by graphviz version 2.43.0 (0)
 -->
<!-- Title: workflow Pages: 1 -->
<svg width="153pt" height="355pt"
 viewBox="0.00 0.00 153.00 355.00" xmlns="http://www.w3.org/2000/svg" xmlns:xlink="http://www.w3.org/1999/xlink">
<g id="graph0" class="graph" transform="scale(1 1) rotate(0) translate(4 351)">
<title>workflow</title>
<polygon fill="white" stroke="transparent" points="-4,4 -4,-351 149,-351 149,4 -4,4"/>
<text text-anchor="start" x="8" y="-8.8" font-family="Times,serif" font-weight="bold" font-size="14.00">OfficialWorkflow</text>
<!-- place_new -->
<g id="node1" class="node">
<title>place_new</title>
<ellipse fill="lightgreen" stroke="#333333" cx="72.5" cy="-329" rx="36" ry="18"/>
<text text-anchor="start" x="64.5" y="-328.1" font-family="Arial" font-weight="bold" font-size="8.00">new</text>
</g>
<!-- transition_0 -->
<g id="node4" class="node">
<title>transition_0</title>
<polygon fill="none" stroke="#333333" points="129.5,-275 15.5,-275 15.5,-239 129.5,-239 129.5,-275"/>
<text text-anchor="start" x="52.5" y="-263.6" font-family="Arial" font-weight="bold" font-size="8.00">fetch_wiki</text>
<text text-anchor="start" x="43.5" y="-255.6" font-family="Arial" font-style="italic" font-size="8.00">scrape wiki data</text>
<text text-anchor="start" x="23.5" y="-247.6" font-family="Arial" font-size="8.00">transport: official_fetch_wiki</text>
</g>
<!-- place_new&#45;&gt;transition_0 -->
<!-- new -->
<g id="edge1" class="edge">
<title>place_new&#45;&gt;transition_0</title>
<path fill="none" stroke="#333333" d="M72.5,-310.7C72.5,-301.46 72.5,-289.98 72.5,-280.11"/>
<polygon fill="#333333" stroke="#333333" points="74.25,-280.1 72.5,-275.1 70.75,-280.1 74.25,-280.1"/>
</g>
<!-- place_details -->
<g id="node2" class="node">
<title>place_details</title>
<ellipse fill="lightgreen" stroke="#333333" cx="72.5" cy="-185" rx="36" ry="18"/>
<text text-anchor="start" x="59" y="-184.1" font-family="Arial" font-weight="bold" font-size="8.00">details</text>
</g>
<!-- transition_1 -->
<g id="node5" class="node">
<title>transition_1</title>
<polygon fill="none" stroke="#333333" points="108.5,-131 36.5,-131 36.5,-95 108.5,-95 108.5,-131"/>
<text text-anchor="start" x="61" y="-119.6" font-family="Arial" font-weight="bold" font-size="8.00">resize</text>
<text text-anchor="start" x="46" y="-111.6" font-family="Arial" font-style="italic" font-size="8.00">dispatch resize</text>
<text text-anchor="start" x="58.5" y="-103.6" font-family="Arial" font-style="italic" font-size="8.00">request</text>
</g>
<!-- place_details&#45;&gt;transition_1 -->
<!-- details -->
<g id="edge3" class="edge">
<title>place_details&#45;&gt;transition_1</title>
<path fill="none" stroke="#333333" d="M72.5,-166.7C72.5,-157.46 72.5,-145.98 72.5,-136.11"/>
<polygon fill="#333333" stroke="#333333" points="74.25,-136.1 72.5,-131.1 70.75,-136.1 74.25,-136.1"/>
</g>
<!-- place_images_resized -->
<g id="node3" class="node">
<title>place_images_resized</title>
<ellipse fill="lightgreen" stroke="#333333" cx="72.5" cy="-41" rx="43.85" ry="18"/>
<text text-anchor="start" x="42" y="-40.1" font-family="Arial" font-weight="bold" font-size="8.00">images_resized</text>
</g>
<!-- transition_0&#45;&gt;place_details -->
<g id="edge2" class="edge">
<title>transition_0&#45;&gt;place_details</title>
<path fill="none" stroke="#333333" d="M72.5,-238.7C72.5,-229.46 72.5,-217.98 72.5,-208.11"/>
<polygon fill="#333333" stroke="#333333" points="74.25,-208.1 72.5,-203.1 70.75,-208.1 74.25,-208.1"/>
</g>
<!-- transition_1&#45;&gt;place_images_resized -->
<g id="edge4" class="edge">
<title>transition_1&#45;&gt;place_images_resized</title>
<path fill="none" stroke="#333333" d="M72.5,-94.7C72.5,-85.46 72.5,-73.98 72.5,-64.11"/>
<polygon fill="#333333" stroke="#333333" points="74.25,-64.1 72.5,-59.1 70.75,-64.1 74.25,-64.1"/>
</g>
</g>
</svg>
