<?xml version="1.0" encoding="UTF-8" standalone="no"?>
<!DOCTYPE svg PUBLIC "-//W3C//DTD SVG 1.1//EN"
 "http://www.w3.org/Graphics/SVG/1.1/DTD/svg11.dtd">
<!-- Generated by graphviz version 2.43.0 (0)
 -->
<!-- Title: workflow Pages: 1 -->
<svg width="153pt" height="535pt"
 viewBox="0.00 0.00 153.00 535.00" xmlns="http://www.w3.org/2000/svg" xmlns:xlink="http://www.w3.org/1999/xlink">
<g id="graph0" class="graph" transform="scale(1 1) rotate(0) translate(4 531)">
<title>workflow</title>
<polygon fill="white" stroke="transparent" points="-4,4 -4,-531 149,-531 149,4 -4,4"/>
<text text-anchor="start" x="8" y="-8.8" font-family="Times,serif" font-weight="bold" font-size="14.00">OfficialWorkflow</text>
<!-- place_new -->
<g id="node1" class="node">
<title>place_new</title>
<ellipse fill="lightgreen" stroke="lightBlue" cx="72.5" cy="-491" rx="72" ry="36"/>
<text text-anchor="start" x="64.5" y="-493.6" font-family="Arial" font-weight="bold" font-size="8.00">new</text>
<text text-anchor="start" x="39" y="-485.6" font-family="Arial" font-style="italic" font-size="8.00">loaded from JSON</text>
</g>
<!-- transition_0 -->
<g id="node4" class="node">
<title>transition_0</title>
<polygon fill="lightBlue" stroke="lightBlue" points="144.5,-419 0.5,-419 0.5,-347 144.5,-347 144.5,-419"/>
<text text-anchor="start" x="52.5" y="-397.6" font-family="Arial" font-weight="bold" font-size="8.00">fetch_wiki</text>
<text text-anchor="start" x="43.5" y="-389.6" font-family="Arial" font-style="italic" font-size="8.00">scrape wiki data</text>
<text text-anchor="start" x="34" y="-381.6" font-family="Arial" font-size="8.00">Via: official_fetch_wiki</text>
<text text-anchor="start" x="50" y="-365.6" font-family="Arial" font-size="8.00">Then: resize</text>
</g>
<!-- place_new&#45;&gt;transition_0 -->
<!-- new -->
<g id="edge1" class="edge">
<title>place_new&#45;&gt;transition_0</title>
<path fill="none" stroke="#333333" d="M72.5,-455C72.5,-445.24 72.5,-434.56 72.5,-424.51"/>
<polygon fill="#333333" stroke="#333333" points="74.25,-424.33 72.5,-419.33 70.75,-424.33 74.25,-424.33"/>
</g>
<!-- place_details -->
<g id="node2" class="node">
<title>place_details</title>
<ellipse fill="lightgreen" stroke="lightBlue" cx="72.5" cy="-275" rx="72" ry="36"/>
<text text-anchor="start" x="59" y="-281.6" font-family="Arial" font-weight="bold" font-size="8.00">details</text>
<text text-anchor="start" x="46.5" y="-273.6" font-family="Arial" font-style="italic" font-size="8.00">enhanced with</text>
<text text-anchor="start" x="58" y="-265.6" font-family="Arial" font-style="italic" font-size="8.00">wikidata</text>
</g>
<!-- transition_1 -->
<g id="node5" class="node">
<title>transition_1</title>
<polygon fill="lightBlue" stroke="lightBlue" points="144.5,-203 0.5,-203 0.5,-131 144.5,-131 144.5,-203"/>
<text text-anchor="start" x="61" y="-173.6" font-family="Arial" font-weight="bold" font-size="8.00">resize</text>
<text text-anchor="start" x="41.5" y="-165.6" font-family="Arial" font-style="italic" font-size="8.00">dispatch resize to</text>
<text text-anchor="start" x="65.5" y="-157.6" font-family="Arial" font-style="italic" font-size="8.00">sais</text>
</g>
<!-- place_details&#45;&gt;transition_1 -->
<!-- details -->
<g id="edge3" class="edge">
<title>place_details&#45;&gt;transition_1</title>
<path fill="none" stroke="#333333" d="M72.5,-239C72.5,-229.24 72.5,-218.56 72.5,-208.51"/>
<polygon fill="#333333" stroke="#333333" points="74.25,-208.33 72.5,-203.33 70.75,-208.33 74.25,-208.33"/>
</g>
<!-- place_images_resized -->
<g id="node3" class="node">
<title>place_images_resized</title>
<ellipse fill="lightgreen" stroke="lightBlue" cx="72.5" cy="-59" rx="72" ry="36"/>
<text text-anchor="start" x="42" y="-65.6" font-family="Arial" font-weight="bold" font-size="8.00">images_resized</text>
<text text-anchor="start" x="36" y="-57.6" font-family="Arial" font-style="italic" font-size="8.00">resize requested(via</text>
<text text-anchor="start" x="64" y="-49.6" font-family="Arial" font-style="italic" font-size="8.00">sais)</text>
</g>
<!-- transition_0&#45;&gt;place_details -->
<g id="edge2" class="edge">
<title>transition_0&#45;&gt;place_details</title>
<path fill="none" stroke="#333333" d="M72.5,-347C72.5,-337.24 72.5,-326.56 72.5,-316.51"/>
<polygon fill="#333333" stroke="#333333" points="74.25,-316.33 72.5,-311.33 70.75,-316.33 74.25,-316.33"/>
</g>
<!-- transition_1&#45;&gt;place_images_resized -->
<g id="edge4" class="edge">
<title>transition_1&#45;&gt;place_images_resized</title>
<path fill="none" stroke="#333333" d="M72.5,-131C72.5,-121.24 72.5,-110.56 72.5,-100.51"/>
<polygon fill="#333333" stroke="#333333" points="74.25,-100.33 72.5,-95.33 70.75,-100.33 74.25,-100.33"/>
</g>
</g>
</svg>
