<?xml version="1.0" encoding="UTF-8" standalone="no"?>
<!DOCTYPE svg PUBLIC "-//W3C//DTD SVG 1.1//EN"
 "http://www.w3.org/Graphics/SVG/1.1/DTD/svg11.dtd">
<!-- Generated by graphviz version 2.43.0 (0)
 -->
<!-- Title: workflow Pages: 1 -->
<svg width="296pt" height="67pt"
 viewBox="0.00 0.00 296.00 67.00" xmlns="http://www.w3.org/2000/svg" xmlns:xlink="http://www.w3.org/1999/xlink">
<g id="graph0" class="graph" transform="scale(1 1) rotate(0) translate(4 63)">
<title>workflow</title>
<polygon fill="white" stroke="transparent" points="-4,4 -4,-63 292,-63 292,4 -4,4"/>
<text text-anchor="start" x="79.5" y="-8.8" font-family="Times,serif" font-weight="bold" font-size="14.00">OfficialWorkflow</text>
<!-- place_new -->
<g id="node1" class="node">
<title>place_new</title>
<ellipse fill="lightgreen" stroke="#333333" cx="36" cy="-41" rx="36" ry="18"/>
<text text-anchor="start" x="28" y="-40.1" font-family="Arial" font-weight="bold" font-size="8.00">new</text>
</g>
<!-- transition_0 -->
<g id="node3" class="node">
<title>transition_0</title>
<polygon fill="none" stroke="#333333" points="180,-59 108,-59 108,-23 180,-23 180,-59"/>
<text text-anchor="start" x="122" y="-40.1" font-family="Arial" font-weight="bold" font-size="8.00">fetch_wiki</text>
<text text-anchor="start" x="162" y="-40.1" font-family="Arial" baseline-shift="super" font-size="8.00">1</text>
</g>
<!-- place_new&#45;&gt;transition_0 -->
<!-- new -->
<g id="edge1" class="edge">
<title>place_new&#45;&gt;transition_0</title>
<path fill="none" stroke="#333333" d="M72,-41C81.76,-41 92.44,-41 102.49,-41"/>
<polygon fill="#333333" stroke="#333333" points="102.67,-42.75 107.67,-41 102.67,-39.25 102.67,-42.75"/>
</g>
<!-- place_details -->
<g id="node2" class="node">
<title>place_details</title>
<ellipse fill="lightgreen" stroke="#333333" cx="252" cy="-41" rx="36" ry="18"/>
<text text-anchor="start" x="238.5" y="-40.1" font-family="Arial" font-weight="bold" font-size="8.00">details</text>
</g>
<!-- transition_0&#45;&gt;place_details -->
<g id="edge2" class="edge">
<title>transition_0&#45;&gt;place_details</title>
<path fill="none" stroke="#333333" d="M180,-41C189.76,-41 200.44,-41 210.49,-41"/>
<polygon fill="#333333" stroke="#333333" points="210.67,-42.75 215.67,-41 210.67,-39.25 210.67,-42.75"/>
</g>
</g>
</svg>
