<?xml version="1.0" encoding="UTF-8" standalone="no"?>
<!DOCTYPE svg PUBLIC "-//W3C//DTD SVG 1.1//EN"
 "http://www.w3.org/Graphics/SVG/1.1/DTD/svg11.dtd">
<!-- Generated by graphviz version 2.43.0 (0)
 -->
<!-- Title: workflow Pages: 1 -->
<svg width="164pt" height="374pt"
 viewBox="0.00 0.00 164.00 373.51" xmlns="http://www.w3.org/2000/svg" xmlns:xlink="http://www.w3.org/1999/xlink">
<g id="graph0" class="graph" transform="scale(1 1) rotate(0) translate(4 369.51)">
<title>workflow</title>
<polygon fill="white" stroke="transparent" points="-4,4 -4,-369.51 160,-369.51 160,4 -4,4"/>
<text text-anchor="start" x="13.5" y="-8.8" font-family="Times,serif" font-weight="bold" font-size="14.00">OfficialWorkflow</text>
<!-- place_new -->
<g id="node1" class="node">
<title>place_new</title>
<ellipse fill="lightgreen" stroke="#333333" cx="78" cy="-347.51" rx="55.86" ry="18"/>
<text text-anchor="start" x="70" y="-350.11" font-family="Arial" font-weight="bold" font-size="8.00">new</text>
<text text-anchor="start" x="44.5" y="-342.11" font-family="Arial" font-style="italic" font-size="8.00">loaded from JSON</text>
</g>
<!-- transition_0 -->
<g id="node4" class="node">
<title>transition_0</title>
<polygon fill="none" stroke="#333333" points="156,-293.51 0,-293.51 0,-257.51 156,-257.51 156,-293.51"/>
<text text-anchor="start" x="58" y="-282.11" font-family="Arial" font-weight="bold" font-size="8.00">fetch_wiki</text>
<text text-anchor="start" x="49" y="-274.11" font-family="Arial" font-style="italic" font-size="8.00">scrape wiki data</text>
<text text-anchor="start" x="8" y="-266.11" font-family="Arial" font-size="8.00">transport: official_fetch_wikiNext: resize</text>
</g>
<!-- place_new&#45;&gt;transition_0 -->
<!-- new -->
<g id="edge1" class="edge">
<title>place_new&#45;&gt;transition_0</title>
<path fill="none" stroke="#333333" d="M78,-329.21C78,-319.97 78,-308.49 78,-298.61"/>
<polygon fill="#333333" stroke="#333333" points="79.75,-298.61 78,-293.61 76.25,-298.61 79.75,-298.61"/>
</g>
<!-- place_details -->
<g id="node2" class="node">
<title>place_details</title>
<ellipse fill="lightgreen" stroke="#333333" cx="78" cy="-198.88" rx="48.17" ry="22.76"/>
<text text-anchor="start" x="64.5" y="-205.48" font-family="Arial" font-weight="bold" font-size="8.00">details</text>
<text text-anchor="start" x="52" y="-197.48" font-family="Arial" font-style="italic" font-size="8.00">enhanced with</text>
<text text-anchor="start" x="63.5" y="-189.48" font-family="Arial" font-style="italic" font-size="8.00">wikidata</text>
</g>
<!-- transition_1 -->
<g id="node5" class="node">
<title>transition_1</title>
<polygon fill="none" stroke="#333333" points="117,-140.25 39,-140.25 39,-104.25 117,-104.25 117,-140.25"/>
<text text-anchor="start" x="66.5" y="-128.85" font-family="Arial" font-weight="bold" font-size="8.00">resize</text>
<text text-anchor="start" x="47" y="-120.85" font-family="Arial" font-style="italic" font-size="8.00">dispatch resize to</text>
<text text-anchor="start" x="71" y="-112.85" font-family="Arial" font-style="italic" font-size="8.00">sais</text>
</g>
<!-- place_details&#45;&gt;transition_1 -->
<!-- details -->
<g id="edge3" class="edge">
<title>place_details&#45;&gt;transition_1</title>
<path fill="none" stroke="#333333" d="M78,-175.9C78,-166.32 78,-155.11 78,-145.5"/>
<polygon fill="#333333" stroke="#333333" points="79.75,-145.35 78,-140.35 76.25,-145.35 79.75,-145.35"/>
</g>
<!-- place_images_resized -->
<g id="node3" class="node">
<title>place_images_resized</title>
<ellipse fill="lightgreen" stroke="#333333" cx="78" cy="-45.63" rx="62.87" ry="22.76"/>
<text text-anchor="start" x="47.5" y="-52.23" font-family="Arial" font-weight="bold" font-size="8.00">images_resized</text>
<text text-anchor="start" x="41.5" y="-44.23" font-family="Arial" font-style="italic" font-size="8.00">resize requested(via</text>
<text text-anchor="start" x="69.5" y="-36.23" font-family="Arial" font-style="italic" font-size="8.00">sais)</text>
</g>
<!-- transition_0&#45;&gt;place_details -->
<g id="edge2" class="edge">
<title>transition_0&#45;&gt;place_details</title>
<path fill="none" stroke="#333333" d="M78,-257.2C78,-248.18 78,-236.95 78,-226.82"/>
<polygon fill="#333333" stroke="#333333" points="79.75,-226.64 78,-221.64 76.25,-226.64 79.75,-226.64"/>
</g>
<!-- transition_1&#45;&gt;place_images_resized -->
<g id="edge4" class="edge">
<title>transition_1&#45;&gt;place_images_resized</title>
<path fill="none" stroke="#333333" d="M78,-103.95C78,-94.93 78,-83.69 78,-73.57"/>
<polygon fill="#333333" stroke="#333333" points="79.75,-73.39 78,-68.39 76.25,-73.39 79.75,-73.39"/>
</g>
</g>
</svg>
